<svg width="124" height="108" viewBox="0 0 124 108" fill="none" xmlns="http://www.w3.org/2000/svg">
<path d="M62.2196 107.99C44.2015 107.99 26.1834 107.99 8.16532 107.99C7.28515 107.99 6.39361 107.99 5.50965 107.9C0.998795 107.48 -0.814651 104.452 1.10882 100.357C2.7781 96.8227 4.59913 93.3786 6.36705 89.8817C14.7134 73.4164 23.0599 56.9536 31.4063 40.4933C31.6642 39.9905 31.9336 39.4877 32.2333 39.0076C34.3351 35.6505 37.7495 35.1779 40.4393 38.0738C42.3362 40.1001 43.941 42.376 45.6331 44.5725C54.2324 55.7703 62.8317 66.9732 71.431 78.1811C75.1869 83.0579 79.9178 83.3225 84.33 78.9372C86.5191 76.7596 88.6588 74.5253 90.8744 72.3667C94.8693 68.4727 99.4029 68.7071 102.666 73.2475C109.214 82.3585 115.599 91.5905 122.014 100.792C122.515 101.514 122.899 102.31 123.152 103.151C123.774 105.265 122.894 106.966 120.743 107.529C119.394 107.851 118.01 107.999 116.623 107.971C98.4987 108.002 80.3642 108.008 62.2196 107.99Z" fill="#D4D2E3"/>
<path d="M102.628 17.7688C102.623 21.2832 101.571 24.7171 99.6058 27.6352C97.6403 30.5532 94.8496 32.824 91.5875 34.1597C88.3253 35.4954 84.7386 35.8358 81.2821 35.1377C77.8256 34.4396 74.6549 32.7345 72.1721 30.2386C69.6892 27.7427 68.0059 24.5683 67.3357 21.118C66.6655 17.6676 67.0385 14.0966 68.4074 10.8578C69.7763 7.6189 72.0795 4.858 75.0249 2.92508C77.9704 0.99217 81.4255 -0.0257081 84.9522 0.000493408C89.6483 0.0599617 94.133 1.95594 97.4394 5.2797C100.746 8.60346 102.609 13.0888 102.628 17.7688Z" fill="#D4D2E3"/>
</svg>
